<svg xmlns="http://www.w3.org/2000/svg" version="1.1" xmlns:xlink="http://www.w3.org/1999/xlink" xmlns:svgjs="http://svgjs.dev/svgjs" width="1500" height="1687" viewBox="0 0 1500 1687"><g transform="matrix(1,0,0,1,0,0)"><svg viewBox="0 0 320 360" data-background-color="#000000" preserveAspectRatio="xMidYMid meet" height="1687" width="1500" xmlns="http://www.w3.org/2000/svg" xmlns:xlink="http://www.w3.org/1999/xlink"><g id="tight-bounds" transform="matrix(1,0,0,1,0,0)"><svg viewBox="0 0 320 360" height="360" width="320"><g><svg></svg></g><g><svg viewBox="0 0 320 360" height="360" width="320"><g><path d="M320 187.111c0-45.764-20.238-86.866-52.203-114.908-28.043-31.964-69.145-52.203-114.908-52.203-84.302 0-152.889 68.587-152.889 152.889 0 45.753 20.231 86.848 52.185 114.891 28.043 31.975 69.152 52.22 114.926 52.22 0.299 0 0.59-0.021 0.889-0.021 0.299 0 0.59 0.021 0.889 0.021 83.456 0 151.111-67.655 151.111-151.111 0-0.299-0.021-0.59-0.021-0.889 0-0.299 0.021-0.59 0.021-0.889zM59.833 263.097c-15.093-21.255-24.071-47.143-24.256-75.097 0.48-72.928 59.492-131.943 132.423-132.423 27.954 0.185 53.845 9.163 75.097 24.256 24.366 23.627 39.57 56.64 39.57 93.056 0 71.559-58.219 129.778-129.778 129.778-36.416 0-69.429-15.204-93.056-39.57zM3.556 172.889c0-82.343 66.99-149.333 149.333-149.333 35.051 0 67.292 12.167 92.8 32.462-22.98-13.824-49.863-21.796-78.578-21.796-84.302 0-152.889 68.587-152.889 152.889 0 28.708 7.968 55.584 21.785 78.56-20.288-25.5-32.452-57.739-32.451-92.782zM167.111 318.667c-35.84 0-68.363-14.418-92.107-37.743 21.952 15.89 48.864 25.298 77.885 25.298 73.522 0 133.333-59.812 133.333-133.333 0-29.02-9.408-55.932-25.298-77.885 23.324 23.744 37.742 56.267 37.743 92.107 0 72.54-59.015 131.556-131.556 131.556z" fill="#ffffff" fill-rule="nonzero" stroke="none" stroke-width="1" stroke-linecap="butt" stroke-linejoin="miter" stroke-miterlimit="10" stroke-dasharray="" stroke-dashoffset="0" font-family="none" font-weight="none" font-size="none" text-anchor="none" style="mix-blend-mode: normal" data-fill-palette-color="tertiary"></path></g><g transform="matrix(1,0,0,1,88.76489575519233,99)"><svg viewBox="0 0 142.47020848961535 162" height="162" width="142.47020848961535"><g><svg viewBox="0 0 190.45665126478013 216.56441604171113" height="162" width="142.47020848961535"><g><svg viewBox="0 0 190.45665126478013 216.56441604171113" height="216.56441604171113" width="190.45665126478013"><g id="textblocktransform"><svg viewBox="0 0 190.45665126478013 216.56441604171113" height="216.56441604171113" width="190.45665126478013" id="textblock"><g><svg viewBox="0 0 190.45665126478013 160.99884" height="160.99884" width="190.45665126478013"><g transform="matrix(1,0,0,1,0,0)"><svg width="190.45665126478013" viewBox="0.323125 -37.0125 46.626875000000005 37.212500000000006" height="160.99884" data-palette-color="#efefef"><g class="wordmark-text-0" data-fill-palette-color="primary" id="text-0"><path d="M23.55-30.5L23.55-30.5Q23.5-29.9 23.33-29.08 23.15-28.25 22.9-27.53 22.65-26.8 22.4-26.3 22.15-25.8 22-25.9L22-25.9Q21.95-25.9 21.95-26.15 21.95-26.4 21.95-26.73 21.95-27.05 22-27.35 22.05-27.65 22.05-27.8L22.05-27.8Q22.2-28.6 22.25-29.3 22.3-30 22.4-30.75L22.4-30.75Q22.5-31.7 22.53-32.55 22.55-33.4 22.4-34.3L22.4-34.3Q22.4-34.4 22.35-34.55 22.3-34.7 22.4-34.7L22.4-34.7Q22.55-34.7 22.75-34.48 22.95-34.25 23-34.15L23-34.15Q23.3-33.55 23.48-32.75 23.65-31.95 23.55-30.5ZM24.2-34L24.2-34Q25.05-32 25.23-30.03 25.4-28.05 25.13-26.08 24.85-24.1 24.18-22.15 23.5-20.2 22.65-18.35L22.65-18.35Q21.5-15.85 20.23-13.45 18.95-11.05 17.75-8.75 16.55-6.45 15.53-4.28 14.5-2.1 13.9 0L13.9 0Q13.8 0.25 13.68 0.2 13.55 0.15 13.55 0L13.55 0Q13.45-2.4 14.25-4.83 15.05-7.25 16.28-9.7 17.5-12.15 18.93-14.63 20.35-17.1 21.5-19.65L21.5-19.65Q22.25-21.25 22.85-23 23.45-24.75 23.83-26.6 24.2-28.45 24.28-30.28 24.35-32.1 24-33.85L24-33.85Q23.9-34.3 24-34.25L24-34.25Q24.05-34.25 24.2-34ZM7.95-14.45L7.95-14.45Q7.95-14.3 7.93-13.83 7.9-13.35 7.75-13.35L7.75-13.35Q7.65-13.3 7.5-13.73 7.35-14.15 7.25-14.4L7.25-14.4Q7.05-15.05 6.8-15.98 6.55-16.9 6.33-17.88 6.1-18.85 5.93-19.8 5.75-20.75 5.7-21.45L5.7-21.45Q5.65-21.8 5.5-22.83 5.35-23.85 5.1-25.25 4.85-26.65 4.53-28.25 4.2-29.85 3.83-31.33 3.45-32.8 3.05-33.98 2.65-35.15 2.25-35.7L2.25-35.7Q2-36.05 2.1-36.15L2.1-36.15Q2.2-36.25 2.35-36.13 2.5-36 2.6-35.9L2.6-35.9Q3.4-35.3 4.13-34.2 4.85-33.1 5.45-31.85 6.05-30.6 6.45-29.28 6.85-27.95 7-26.9L7-26.9Q7.45-23.95 7.65-20.65 7.85-17.35 7.95-14.45ZM11.1-7.4L11.1-7.4Q10.1-10.75 9.5-14.3 8.9-17.85 8.45-21.45L8.45-21.45Q8.1-24.1 7.65-26.75 7.2-29.4 6.25-32.25L6.25-32.25Q6.15-32.5 6.15-32.52 6.15-32.55 6.25-32.6L6.25-32.6Q6.35-32.6 6.6-32.35L6.6-32.35Q7.65-31.3 8.38-29.1 9.1-26.9 9.63-24.43 10.15-21.95 10.5-19.63 10.85-17.3 11.1-15.9L11.1-15.9Q11.35-14.75 11.53-13.55 11.7-12.35 11.8-11.15L11.8-11.15Q12.15-12.5 12.75-13.93 13.35-15.35 13.98-16.7 14.6-18.05 15.23-19.23 15.85-20.4 16.25-21.25L16.25-21.25Q17.3-23.5 18.65-25.78 20-28.05 21.15-29.6L21.15-29.6Q21.6-30.2 21.65-30.2L21.65-30.2Q21.75-30.1 21.68-29.88 21.6-29.65 21.5-29.4L21.5-29.4Q20.5-25.8 18.78-22.4 17.05-19 15.3-15.55L15.3-15.55Q14.3-13.65 13.3-11.7 12.3-9.75 11.8-7.35L11.8-7.35Q11.7-6.8 11.53-6.68 11.35-6.55 11.1-7.4ZM12.65 0L12.65 0Q12.8 0.1 12.73 0.13 12.65 0.15 12.5 0.05L12.5 0.05Q10.55-0.85 9.15-2.43 7.75-4 6.78-5.95 5.8-7.9 5.2-10.1 4.6-12.3 4.2-14.45L4.2-14.45Q3.65-17.45 3.35-20.45 3.05-23.45 2.68-26.33 2.3-29.2 1.8-31.83 1.3-34.45 0.4-36.65L0.4-36.65Q0.35-36.75 0.33-36.83 0.3-36.9 0.4-37L0.4-37Q0.45-37.05 0.55-36.9 0.65-36.75 0.7-36.65L0.7-36.65Q2.25-34.55 3.03-31.88 3.8-29.2 4.2-26.23 4.6-23.25 4.88-20.13 5.15-17 5.7-14.05L5.7-14.05Q6.05-12.15 6.65-10.18 7.25-8.2 8.1-6.33 8.95-4.45 10.08-2.83 11.2-1.2 12.65 0ZM12.4-1.25L12.4-1.25Q12.1-1.55 11.63-2.05 11.15-2.55 10.75-3.1L10.75-3.1Q10.45-3.6 10.1-4.42 9.75-5.25 9.47-6.05 9.2-6.85 9.08-7.48 8.95-8.1 9.1-8.15L9.1-8.15Q9.15-8.15 9.33-7.93 9.5-7.7 9.65-7.4 9.8-7.1 9.95-6.83 10.1-6.55 10.2-6.45L10.2-6.45Q10.6-5.75 10.9-5.18 11.2-4.6 11.45-3.95L11.45-3.95Q11.75-3.3 12.08-2.83 12.4-2.35 12.45-2.4L12.45-2.4Q12.5-2.4 12.48-2.68 12.45-2.95 12.43-3.3 12.4-3.65 12.38-3.98 12.35-4.3 12.35-4.45L12.35-4.45Q12.25-6.35 12.68-7.85 13.1-9.35 13.65-10.6L13.65-10.6Q14.8-13.15 16.35-15.7 17.9-18.25 19.5-20.5L19.5-20.5Q19.6-20.6 19.9-20.95 20.2-21.3 20.3-21.25L20.3-21.25Q20.45-21.2 20.33-20.78 20.2-20.35 20.15-20.2L20.15-20.2Q19.95-19.6 19.63-18.8 19.3-18 18.95-17.13 18.6-16.25 18.23-15.45 17.85-14.65 17.55-14.1L17.55-14.1Q17.4-13.8 17-12.95 16.6-12.1 16.1-10.88 15.6-9.65 15.05-8.25 14.5-6.85 14.03-5.53 13.55-4.2 13.25-3.1 12.95-2 12.95-1.35L12.95-1.35Q12.95-1 12.8-1L12.8-1Q12.65-1 12.4-1.25ZM45.1-17.6L45.1-17.6Q44.7-15.6 43.75-13.6 42.8-11.6 41.95-9.85L41.95-9.85Q41.9-9.75 41.72-9.5 41.55-9.25 41.45-9.25L41.45-9.25Q41.3-9.3 41.3-9.58 41.3-9.85 41.3-9.95L41.3-9.95Q41.35-10.4 41.47-11.03 41.6-11.65 41.7-12.33 41.8-13 41.92-13.63 42.05-14.25 42.2-14.75L42.2-14.75Q42.65-16.45 42.95-17.68 43.25-18.9 43.4-19.9 43.55-20.9 43.57-21.8 43.6-22.7 43.45-23.75L43.45-23.75Q43.4-24.15 43.5-24.25L43.5-24.25Q43.6-24.3 43.75-24.15 43.9-24 44-23.85L44-23.85Q44.85-22.5 45.15-20.88 45.45-19.25 45.1-17.6ZM46.1-21.25L46.3-20.95Q46.95-20 46.95-18.45 46.95-16.9 46.65-15.28 46.35-13.65 45.9-12.15 45.45-10.65 45.25-9.75L45.25-9.75Q44.85-8 44.15-6.25 43.45-4.5 42.95-3.15L42.95-3.15Q42.9-3 42.8-2.83 42.7-2.65 42.6-2.65L42.6-2.65Q42.5-2.65 42.5-2.85 42.5-3.05 42.5-3.2L42.5-3.2Q42.35-5.95 43.1-8.58 43.85-11.2 44.7-13.9L44.7-13.9Q45.2-15.55 45.65-17.28 46.1-19 46.05-21.05L46.05-21.05Q46.05-21.25 46.1-21.25L46.1-21.25ZM41.6-21.8L41.6-21.8Q38.55-20.55 36.42-18.23 34.3-15.9 33.15-13L33.15-13Q32.65-11.7 32.4-10.68 32.15-9.65 32-8.45L32-8.45Q31.95-8.2 32.15-7.95 32.35-7.7 32.55-7.95L32.55-7.95Q33.45-9.05 34.85-10.75 36.25-12.45 37.65-14.35 39.05-16.25 40.17-18.2 41.3-20.15 41.6-21.8ZM38.25-4.85L38.25-4.85Q37.5-3.8 36.8-2.9 36.1-2 35.25-1.33 34.4-0.65 33.35-0.25 32.3 0.15 30.95 0.2L30.95 0.2Q28.7 0.3 27.52-0.95 26.35-2.2 25.9-4 25.45-5.8 25.57-7.73 25.7-9.65 26.1-10.9L26.1-10.9Q26.65-12.65 27.42-14.23 28.2-15.8 29.07-17.07 29.95-18.35 30.87-19.28 31.8-20.2 32.7-20.7L32.7-20.7Q32.75-20.7 32.92-20.8 33.1-20.9 33.1-20.75L33.1-20.75Q33.15-20.75 33.05-20.6 32.95-20.45 32.85-20.35L32.85-20.35Q30.25-17.65 28.72-14.25 27.2-10.85 27-7.25L27-7.25Q26.95-6.35 27.07-5.3 27.2-4.25 27.57-3.33 27.95-2.4 28.65-1.78 29.35-1.15 30.55-1.15L30.55-1.15Q31.5-1.15 32.3-1.48 33.1-1.8 33.8-2.33 34.5-2.85 35.07-3.48 35.65-4.1 36.1-4.65L36.1-4.65Q37.1-5.9 37.95-7.25L37.95-7.25Q37.95-8.25 38.07-9.2 38.2-10.15 38.45-11.1L38.45-11.1Q38.6-11.8 38.72-12.23 38.85-12.65 38.97-13.03 39.1-13.4 39.22-13.83 39.35-14.25 39.6-14.95L39.6-14.95Q38.8-13.55 38.02-12.33 37.25-11.1 36.37-9.98 35.5-8.85 34.57-7.78 33.65-6.7 32.55-5.6L32.55-5.6Q31.7-4.75 31.15-5.05 30.6-5.35 30.5-6.45L30.5-6.45Q30.4-8.15 30.67-9.75 30.95-11.35 31.65-13.1L31.65-13.1Q32.3-14.7 33.27-16.2 34.25-17.7 35.52-18.93 36.8-20.15 38.35-21.03 39.9-21.9 41.65-22.2L41.65-22.2Q41.75-22.75 41.82-23.15 41.9-23.55 41.95-23.95L41.95-23.95Q42.05-24.5 42.05-24.5L42.05-24.5Q42.15-24.55 42.27-24.4 42.4-24.25 42.5-24L42.5-24Q43.1-22.35 42.9-20.7 42.7-19.05 42.17-17.35 41.65-15.65 40.95-13.88 40.25-12.1 39.8-10.3L39.8-10.3Q39.2-7.75 39.47-5.03 39.75-2.3 41.6-0.1L41.6-0.1Q41.75 0.1 41.75 0.1L41.75 0.1Q41.7 0.15 41.45 0L41.45 0Q40-0.9 39.27-2.18 38.55-3.45 38.25-4.85ZM40-22.55L40-22.55Q40.1-22.45 39.97-22.4 39.85-22.35 39.45-22.25L39.45-22.25Q38.8-22.05 37.87-21.5 36.95-20.95 35.92-20.1 34.9-19.25 33.9-18.13 32.9-17 32.15-15.7L32.15-15.7Q31.4-14.35 30.87-13.05 30.35-11.75 30.02-10.68 29.7-9.6 29.55-8.83 29.4-8.05 29.4-7.75L29.4-7.75Q29.4-7 29.4-6.18 29.4-5.35 29.6-4.7 29.8-4.05 30.3-3.7 30.8-3.35 31.8-3.5L31.8-3.5Q31.85-3.5 32.05-3.58 32.25-3.65 32.45-3.73 32.65-3.8 32.82-3.85 33-3.9 33.05-3.9L33.05-3.9Q33.1-3.8 32.97-3.65 32.85-3.5 32.65-3.33 32.45-3.15 32.27-3 32.1-2.85 32.05-2.8L32.05-2.8Q30.8-2.05 29.95-2.35 29.1-2.65 28.62-3.48 28.15-4.3 27.97-5.43 27.8-6.55 27.85-7.45L27.85-7.45Q27.95-9.2 28.4-10.93 28.85-12.65 29.55-14.4L29.55-14.4Q30.1-15.75 31.2-17.18 32.3-18.6 33.67-19.8 35.05-21 36.55-21.78 38.05-22.55 39.45-22.6L39.45-22.6Q39.95-22.6 40-22.55ZM42.95-0.1L42.95-0.1Q43.05 0.05 43 0.1L43 0.1Q42.85 0.1 42.6 0L42.6 0Q42.45-0.1 41.8-0.6 41.15-1.1 40.85-2.2L40.85-2.2Q40.75-2.6 40.67-3.23 40.6-3.85 40.6-4.4 40.6-4.95 40.67-5.35 40.75-5.75 40.9-5.75L40.9-5.75Q41.05-5.75 41.22-5.15 41.4-4.55 41.45-4.4L41.45-4.4Q41.6-3.7 41.72-3.18 41.85-2.65 42-2.2L42-2.2Q42.2-1.65 42.52-0.95 42.85-0.25 42.95-0.1Z" fill="#efefef" data-fill-palette-color="primary"></path></g></svg></g></svg></g><g transform="matrix(1,0,0,1,0,199.00680215184002)"><svg viewBox="0 0 190.45665126478013 17.557613889871114" height="17.557613889871114" width="190.45665126478013"><g transform="matrix(1,0,0,1,0,0)"><svg width="190.45665126478013" viewBox="0.7 -39.65 547.74 50.5" height="17.557613889871114" data-palette-color="#f1f1f1"><path d="M28.5-34.55L34.4-34.55 29.55 0 21.2 0 17.5-27.8 13.65 0 5.45 0 0.7-34.55 6.85-34.55 10.05-5.1 14.2-34.55 20.95-34.55 25-5.1 28.5-34.55ZM50.3-27.15Q53.15-27.15 54.8-25.1 56.45-23.05 56.45-19.6L56.45-19.6 56.45 0 50.3 0 50.3-18.9Q50.3-20.8 49.77-21.63 49.25-22.45 48.25-22.45L48.25-22.45Q46.15-22.45 44.1-18.5L44.1-18.5 44.1 0 37.95 0 37.95-37 44.1-37.65 44.1-23.3Q45.35-25.25 46.82-26.2 48.3-27.15 50.3-27.15L50.3-27.15ZM80.85-13.85Q80.85-13.4 80.7-11.3L80.7-11.3 67.05-11.3Q67.25-7.2 68.47-5.58 69.7-3.95 71.95-3.95L71.95-3.95Q73.5-3.95 74.75-4.48 76-5 77.45-6.15L77.45-6.15 80-2.65Q76.5 0.75 71.6 0.75L71.6 0.75Q66.4 0.75 63.62-2.85 60.85-6.45 60.85-13L60.85-13Q60.85-19.55 63.5-23.35 66.15-27.15 71-27.15L71-27.15Q75.65-27.15 78.25-23.78 80.85-20.4 80.85-13.85L80.85-13.85ZM74.85-15.3L74.85-15.65Q74.85-19.4 73.95-21.13 73.05-22.85 71.05-22.85L71.05-22.85Q69.2-22.85 68.22-21.18 67.25-19.5 67.05-15.3L67.05-15.3 74.85-15.3ZM96.79-27.1Q97.94-27.1 98.84-26.75L98.84-26.75 97.84-20.85Q96.84-21.1 95.99-21.1L95.99-21.1Q94.09-21.1 92.99-19.45 91.89-17.8 91.29-14.55L91.29-14.55 91.29 0 85.14 0 85.14-26.45 90.49-26.45 90.94-21.85Q92.79-27.1 96.79-27.1L96.79-27.1ZM120.54-13.85Q120.54-13.4 120.39-11.3L120.39-11.3 106.74-11.3Q106.94-7.2 108.17-5.58 109.39-3.95 111.64-3.95L111.64-3.95Q113.19-3.95 114.44-4.48 115.69-5 117.14-6.15L117.14-6.15 119.69-2.65Q116.19 0.75 111.29 0.75L111.29 0.75Q106.09 0.75 103.32-2.85 100.54-6.45 100.54-13L100.54-13Q100.54-19.55 103.19-23.35 105.84-27.15 110.69-27.15L110.69-27.15Q115.34-27.15 117.94-23.78 120.54-20.4 120.54-13.85L120.54-13.85ZM114.54-15.3L114.54-15.65Q114.54-19.4 113.64-21.13 112.74-22.85 110.74-22.85L110.74-22.85Q108.89-22.85 107.92-21.18 106.94-19.5 106.74-15.3L106.74-15.3 114.54-15.3ZM156.79 0L150.34 0 148.64-8.1 139.74-8.1 138.09 0 131.74 0 140.44-34.55 148.14-34.55 156.79 0ZM144.19-29.7L140.74-12.9 147.69-12.9 144.19-29.7ZM171.18-27.1Q172.33-27.1 173.23-26.75L173.23-26.75 172.23-20.85Q171.23-21.1 170.38-21.1L170.38-21.1Q168.48-21.1 167.38-19.45 166.28-17.8 165.68-14.55L165.68-14.55 165.68 0 159.53 0 159.53-26.45 164.88-26.45 165.33-21.85Q167.18-27.1 171.18-27.1L171.18-27.1ZM187.23-5L189.38-1.2Q186.93 0.75 183.63 0.75L183.63 0.75Q180.18 0.75 178.38-1.23 176.58-3.2 176.58-6.6L176.58-6.6 176.58-22 173.48-22 173.48-26.45 176.58-26.45 176.58-32.3 182.73-33.05 182.73-26.45 187.73-26.45 187.13-22 182.73-22 182.73-6.6Q182.73-4.2 184.78-4.2L184.78-4.2Q185.43-4.2 185.93-4.38 186.43-4.55 187.23-5L187.23-5ZM227.98-34.55L230.18 0 224.13 0 223.53-14.6Q223.23-22.6 223.23-26L223.23-26 223.28-28.6 218.53-3.8 212.53-3.8 207.58-28.65Q207.63-27.15 207.63-24.05L207.63-24.05Q207.63-18.8 207.43-14.4L207.43-14.4 206.88 0 200.93 0 203.13-34.55 211.13-34.55 215.63-10.2 219.83-34.55 227.98-34.55ZM253.82-13.85Q253.82-13.4 253.67-11.3L253.67-11.3 240.02-11.3Q240.22-7.2 241.45-5.58 242.67-3.95 244.92-3.95L244.92-3.95Q246.47-3.95 247.72-4.48 248.97-5 250.42-6.15L250.42-6.15 252.97-2.65Q249.47 0.75 244.57 0.75L244.57 0.75Q239.37 0.75 236.6-2.85 233.82-6.45 233.82-13L233.82-13Q233.82-19.55 236.47-23.35 239.12-27.15 243.97-27.15L243.97-27.15Q248.62-27.15 251.22-23.78 253.82-20.4 253.82-13.85L253.82-13.85ZM247.82-15.3L247.82-15.65Q247.82-19.4 246.92-21.13 246.02-22.85 244.02-22.85L244.02-22.85Q242.17-22.85 241.2-21.18 240.22-19.5 240.02-15.3L240.02-15.3 247.82-15.3ZM276.97-13.85Q276.97-13.4 276.82-11.3L276.82-11.3 263.17-11.3Q263.37-7.2 264.6-5.58 265.82-3.95 268.07-3.95L268.07-3.95Q269.62-3.95 270.87-4.48 272.12-5 273.57-6.15L273.57-6.15 276.12-2.65Q272.62 0.75 267.72 0.75L267.72 0.75Q262.52 0.75 259.75-2.85 256.97-6.45 256.97-13L256.97-13Q256.97-19.55 259.62-23.35 262.27-27.15 267.12-27.15L267.12-27.15Q271.77-27.15 274.37-23.78 276.97-20.4 276.97-13.85L276.97-13.85ZM270.97-15.3L270.97-15.65Q270.97-19.4 270.07-21.13 269.17-22.85 267.17-22.85L267.17-22.85Q265.32-22.85 264.35-21.18 263.37-19.5 263.17-15.3L263.17-15.3 270.97-15.3ZM292.42-5L294.57-1.2Q292.12 0.75 288.82 0.75L288.82 0.75Q285.37 0.75 283.57-1.23 281.77-3.2 281.77-6.6L281.77-6.6 281.77-22 278.67-22 278.67-26.45 281.77-26.45 281.77-32.3 287.92-33.05 287.92-26.45 292.92-26.45 292.32-22 287.92-22 287.92-6.6Q287.92-4.2 289.97-4.2L289.97-4.2Q290.62-4.2 291.12-4.38 291.62-4.55 292.42-5L292.42-5ZM304.47-27.15Q309.17-27.15 312.42-24.05L312.42-24.05 310.07-20.7Q308.67-21.7 307.42-22.2 306.17-22.7 304.87-22.7L304.87-22.7Q303.42-22.7 302.59-21.93 301.77-21.15 301.77-19.8L301.77-19.8Q301.77-18.45 302.69-17.63 303.62-16.8 306.42-15.7L306.42-15.7Q309.87-14.35 311.52-12.5 313.17-10.65 313.17-7.55L313.17-7.55Q313.17-3.7 310.47-1.48 307.77 0.75 303.62 0.75L303.62 0.75Q300.92 0.75 298.64-0.23 296.37-1.2 294.67-2.95L294.67-2.95 297.67-6.25Q300.47-3.8 303.37-3.8L303.37-3.8Q305.02-3.8 305.97-4.67 306.92-5.55 306.92-7.1L306.92-7.1Q306.92-8.25 306.52-8.97 306.12-9.7 305.12-10.33 304.12-10.95 302.12-11.7L302.12-11.7Q298.67-13.05 297.19-14.85 295.72-16.65 295.72-19.45L295.72-19.45Q295.72-22.8 298.09-24.98 300.47-27.15 304.47-27.15L304.47-27.15ZM327.01-34.55L333.36-34.55 333.36 0 327.01 0 327.01-34.55ZM362.86-27.15Q365.51-27.15 367.11-25.1 368.71-23.05 368.71-19.6L368.71-19.6 368.71 0 362.66 0 362.66-18.95Q362.66-20.85 362.16-21.68 361.66-22.5 360.71-22.5L360.71-22.5Q358.76-22.5 356.96-18.8L356.96-18.8 356.96 0 350.96 0 350.96-18.95Q350.96-22.5 349.06-22.5L349.06-22.5Q347.01-22.5 345.26-18.8L345.26-18.8 345.26 0 339.21 0 339.21-26.45 344.56-26.45 344.96-23.05Q347.56-27.15 351.21-27.15L351.21-27.15Q353.06-27.15 354.41-26 355.76-24.85 356.46-22.75L356.46-22.75Q359.11-27.15 362.86-27.15L362.86-27.15ZM391.11-6.4Q391.11-5.1 391.46-4.48 391.81-3.85 392.61-3.45L392.61-3.45 391.36 0.65Q389.31 0.4 388.08-0.45 386.86-1.3 386.26-3.05L386.26-3.05Q383.96 0.75 379.81 0.75L379.81 0.75Q376.51 0.75 374.56-1.48 372.61-3.7 372.61-7.4L372.61-7.4Q372.61-11.7 375.28-13.95 377.96-16.2 383.06-16.2L383.06-16.2 385.11-16.2 385.11-18.05Q385.11-20.55 384.23-21.58 383.36-22.6 381.41-22.6L381.41-22.6Q379.06-22.6 375.56-21.3L375.56-21.3 374.16-25.3Q376.16-26.2 378.31-26.68 380.46-27.15 382.41-27.15L382.41-27.15Q391.11-27.15 391.11-18.35L391.11-18.35 391.11-6.4ZM381.46-3.7Q383.86-3.7 385.11-7L385.11-7 385.11-12.55 383.66-12.55Q381.11-12.55 379.93-11.4 378.76-10.25 378.76-7.85L378.76-7.85Q378.76-5.8 379.46-4.75 380.16-3.7 381.46-3.7L381.46-3.7ZM414.85-29.85L416.4-25.1Q415.35-24.6 413.88-24.4 412.4-24.2 410.2-24.2L410.2-24.2Q412.3-23.2 413.33-21.53 414.35-19.85 414.35-17.4L414.35-17.4Q414.35-13.4 411.9-10.95 409.45-8.5 405.25-8.5L405.25-8.5Q404-8.5 402.7-8.9L402.7-8.9Q401.8-8.15 401.8-6.85L401.8-6.85Q401.8-5.85 402.35-5.35 402.9-4.85 404.4-4.85L404.4-4.85 407.2-4.85Q411.2-4.85 413.55-2.78 415.9-0.7 415.9 2.5L415.9 2.5Q415.9 6.3 412.98 8.58 410.05 10.85 404.65 10.85L404.65 10.85Q398.95 10.85 396.68 8.75 394.4 6.65 394.4 2.6L394.4 2.6 399.85 2.6Q399.85 4.75 400.85 5.65 401.85 6.55 404.7 6.55L404.7 6.55Q407.45 6.55 408.6 5.6 409.75 4.65 409.75 2.9L409.75 2.9Q409.75 1.2 408.8 0.4 407.85-0.4 405.85-0.4L405.85-0.4 403.95-0.4Q400.15-0.4 398.4-1.75 396.65-3.1 396.65-5.45L396.65-5.45Q396.65-6.8 397.38-8.03 398.1-9.25 399.35-10.2L399.35-10.2Q397.3-11.5 396.35-13.3 395.4-15.1 395.4-17.7L395.4-17.7Q395.4-22.05 398-24.58 400.6-27.1 405-27.1L405-27.1Q408.25-27.1 410.38-27.8 412.5-28.5 414.85-29.85L414.85-29.85ZM405-23Q403.25-23 402.35-21.75 401.45-20.5 401.45-17.8L401.45-17.8Q401.45-15.25 402.35-13.88 403.25-12.5 404.95-12.5L404.95-12.5Q406.7-12.5 407.55-13.73 408.4-14.95 408.4-17.85L408.4-17.85Q408.4-20.55 407.58-21.78 406.75-23 405-23L405-23ZM419.15-26.45L425.3-26.45 425.3 0 419.15 0 419.15-26.45ZM422.2-39.65Q423.85-39.65 424.88-38.6 425.9-37.55 425.9-35.9L425.9-35.9Q425.9-34.3 424.88-33.25 423.85-32.2 422.2-32.2L422.2-32.2Q420.55-32.2 419.53-33.25 418.5-34.3 418.5-35.9L418.5-35.9Q418.5-37.55 419.53-38.6 420.55-39.65 422.2-39.65L422.2-39.65ZM443.35-27.15Q446.2-27.15 447.85-25.1 449.5-23.05 449.5-19.6L449.5-19.6 449.5 0 443.35 0 443.35-18.9Q443.35-20.8 442.82-21.63 442.3-22.45 441.3-22.45L441.3-22.45Q439.2-22.45 437.15-18.5L437.15-18.5 437.15 0 431 0 431-26.45 436.35-26.45 436.8-23Q438.15-25.1 439.67-26.13 441.2-27.15 443.35-27.15L443.35-27.15ZM471.95-6.4Q471.95-5.1 472.3-4.48 472.65-3.85 473.45-3.45L473.45-3.45 472.2 0.65Q470.15 0.4 468.92-0.45 467.7-1.3 467.1-3.05L467.1-3.05Q464.8 0.75 460.65 0.75L460.65 0.75Q457.35 0.75 455.4-1.48 453.45-3.7 453.45-7.4L453.45-7.4Q453.45-11.7 456.12-13.95 458.8-16.2 463.9-16.2L463.9-16.2 465.95-16.2 465.95-18.05Q465.95-20.55 465.07-21.58 464.2-22.6 462.25-22.6L462.25-22.6Q459.9-22.6 456.4-21.3L456.4-21.3 455-25.3Q457-26.2 459.15-26.68 461.3-27.15 463.25-27.15L463.25-27.15Q471.95-27.15 471.95-18.35L471.95-18.35 471.95-6.4ZM462.3-3.7Q464.7-3.7 465.95-7L465.95-7 465.95-12.55 464.5-12.55Q461.95-12.55 460.77-11.4 459.6-10.25 459.6-7.85L459.6-7.85Q459.6-5.8 460.3-4.75 461-3.7 462.3-3.7L462.3-3.7ZM488.89-5L491.04-1.2Q488.59 0.75 485.29 0.75L485.29 0.75Q481.84 0.75 480.04-1.23 478.24-3.2 478.24-6.6L478.24-6.6 478.24-22 475.14-22 475.14-26.45 478.24-26.45 478.24-32.3 484.39-33.05 484.39-26.45 489.39-26.45 488.79-22 484.39-22 484.39-6.6Q484.39-4.2 486.44-4.2L486.44-4.2Q487.09-4.2 487.59-4.38 488.09-4.55 488.89-5L488.89-5ZM493.59-26.45L499.74-26.45 499.74 0 493.59 0 493.59-26.45ZM496.64-39.65Q498.29-39.65 499.32-38.6 500.34-37.55 500.34-35.9L500.34-35.9Q500.34-34.3 499.32-33.25 498.29-32.2 496.64-32.2L496.64-32.2Q494.99-32.2 493.97-33.25 492.94-34.3 492.94-35.9L492.94-35.9Q492.94-37.55 493.97-38.6 494.99-39.65 496.64-39.65L496.64-39.65ZM514.84-27.15Q519.84-27.15 522.61-23.65 525.39-20.15 525.39-13.25L525.39-13.25Q525.39-6.65 522.59-2.95 519.79 0.75 514.84 0.75L514.84 0.75Q509.89 0.75 507.09-2.88 504.29-6.5 504.29-13.25L504.29-13.25Q504.29-19.95 507.09-23.55 509.89-27.15 514.84-27.15L514.84-27.15ZM514.84-22.5Q512.69-22.5 511.69-20.38 510.69-18.25 510.69-13.25L510.69-13.25Q510.69-8.2 511.69-6.08 512.69-3.95 514.84-3.95L514.84-3.95Q516.99-3.95 517.99-6.08 518.99-8.2 518.99-13.25L518.99-13.25Q518.99-18.3 517.99-20.4 516.99-22.5 514.84-22.5L514.84-22.5ZM542.29-27.15Q545.14-27.15 546.79-25.1 548.44-23.05 548.44-19.6L548.44-19.6 548.44 0 542.29 0 542.29-18.9Q542.29-20.8 541.76-21.63 541.24-22.45 540.24-22.45L540.24-22.45Q538.14-22.45 536.09-18.5L536.09-18.5 536.09 0 529.94 0 529.94-26.45 535.29-26.45 535.74-23Q537.09-25.1 538.61-26.13 540.14-27.15 542.29-27.15L542.29-27.15Z" opacity="1" transform="matrix(1,0,0,1,0,0)" fill="#f1f1f1" class="slogan-text-1" data-fill-palette-color="secondary" id="text-1"></path></svg></g></svg></g></svg></g></svg></g><g></g></svg></g></svg></g></svg></g><defs></defs></svg><rect width="320" height="360" fill="none" stroke="none" visibility="hidden"></rect></g></svg></g></svg>